<svg height="230pt" viewBox="58 45 300 225" width="300pt" xmlns="http://www.w3.org/2000/svg">
    <path d="m96 51.921875h-32c-2.207031 0-4-1.792969-4-4 0-2.210937 1.792969-4 4-4h32c2.207031 0 4 1.789063 4 4 0 2.207031-1.792969 4-4 4zm0 0" fill="#ffce54"/>
    <path d="m240 75.921875h-112c-2.207031 0-4-1.792969-4-4 0-2.210937 1.792969-4 4-4h112c2.207031 0 4 1.789063 4 4 0 2.207031-1.792969 4-4 4zm0 0" fill="#ac92ec"/>
    <path d="m112 75.921875h-40c-2.207031 0-4-1.792969-4-4 0-2.210937 1.792969-4 4-4h40c2.207031 0 4 1.789063 4 4 0 2.207031-1.792969 4-4 4zm0 0" fill="#ac92ec"/>
    <path d="m336 99.921875h-104c-2.207031 0-4-1.792969-4-4 0-2.210937 1.792969-4 4-4h104c2.207031 0 4 1.789063 4 4 0 2.207031-1.792969 4-4 4zm0 0" fill="#5d9cec"/>
    <path d="m216 99.921875h-136c-2.207031 0-4-1.792969-4-4 0-2.210937 1.792969-4 4-4h136c2.207031 0 4 1.789063 4 4 0 2.207031-1.792969 4-4 4zm0 0" fill="#5d9cec"/>
    <path d="m120.015625 147.921875h-24c-2.207031 0-4-1.792969-4-4 0-2.210937 1.792969-4 4-4h24c2.207031 0 4 1.789063 4 4 0 2.207031-1.792969 4-4 4zm0 0" fill="#ed5565"/>
    <path d="m254.769531 147.921875h-118.753906c-2.207031 0-4-1.792969-4-4 0-2.210937 1.792969-4 4-4h118.753906c2.207031 0 4 1.789063 4 4 0 2.207031-1.792969 4-4 4zm0 0" fill="#ed5565"/>
    <path d="m272 123.921875h-184c-2.207031 0-4-1.792969-4-4 0-2.210937 1.792969-4 4-4h184c2.207031 0 4 1.789063 4 4 0 2.207031-1.792969 4-4 4zm0 0" fill="#a0d468"/>
    <path d="m280.015625 171.921875h-72c-2.207031 0-4-1.792969-4-4 0-2.210937 1.792969-4 4-4h72c2.207031 0 4 1.789063 4 4 0 2.207031-1.792969 4-4 4zm0 0" fill="#4fc1e9"/>
    <path d="m224.015625 195.921875h-136c-2.207031 0-4-1.792969-4-4 0-2.210937 1.792969-4 4-4h136c2.207031 0 4 1.789063 4 4 0 2.207031-1.792969 4-4 4zm0 0" fill="#a0d468"/>
    <path d="m136 243.921875h-64c-2.207031 0-4-1.792969-4-4 0-2.210937 1.792969-4 4-4h64c2.207031 0 4 1.789063 4 4 0 2.207031-1.792969 4-4 4zm0 0" fill="#ac92ec"/>
    <path d="m296 219.921875h-112c-2.207031 0-4-1.792969-4-4 0-2.210937 1.792969-4 4-4h112c2.207031 0 4 1.789063 4 4 0 2.207031-1.792969 4-4 4zm0 0" fill="#5d9cec"/>
    <path d="m320 219.921875h-8c-2.207031 0-4-1.792969-4-4 0-2.210937 1.792969-4 4-4h8c2.207031 0 4 1.789063 4 4 0 2.207031-1.792969 4-4 4zm0 0" fill="#5d9cec"/>
    <path d="m168 219.921875h-88c-2.207031 0-4-1.792969-4-4 0-2.210937 1.792969-4 4-4h88c2.207031 0 4 1.789063 4 4 0 2.207031-1.792969 4-4 4zm0 0" fill="#5d9cec"/>
    <path d="m96 267.921875h-32c-2.207031 0-4-1.792969-4-4 0-2.210937 1.792969-4 4-4h32c2.207031 0 4 1.789063 4 4 0 2.207031-1.792969 4-4 4zm0 0" fill="#ffce54"/>
    <path d="m288.015625 195.921875h-48c-2.207031 0-4-1.792969-4-4 0-2.210937 1.792969-4 4-4h48c2.207031 0 4 1.789063 4 4 0 2.207031-1.792969 4-4 4zm0 0" fill="#a0d468"/>
    <path d="m352.015625 171.921875h-56c-2.207031 0-4-1.792969-4-4 0-2.210937 1.792969-4 4-4h56c2.207031 0 4 1.789063 4 4 0 2.207031-1.792969 4-4 4zm0 0" fill="#4fc1e9"/>
    <path d="m192.015625 171.921875h-96c-2.207031 0-4-1.792969-4-4 0-2.210937 1.792969-4 4-4h96c2.207031 0 4 1.789063 4 4 0 2.207031-1.792969 4-4 4zm0 0" fill="#4fc1e9"/>
</svg>